<svg height="380pt" viewBox="0 -6 380.0004 380" width="380pt" xmlns="http://www.w3.org/2000/svg"><path d="m43.535156 75.53125c-8.070312-12.160156-22.140625-25.78125-36.398437-28.269531h-.09375.121093c1.714844-.285157 25.875-4.5 40.765626 1.4375.988281.457031 2.152343.296875 2.984374-.410157.828126-.703124 1.175782-1.828124.886719-2.878906-1.234375-3.925781-1.917969-8.003906-2.035156-12.121094-.015625-1.964843 1.042969-3.777343 2.761719-4.730468 1.71875-.949219 3.820312-.878906 5.472656.183594 3.421875 2.28125 6.511719 5.023437 9.183594 8.148437.734375.808594 1.871094 1.113281 2.910156.785156s1.792969-1.226562 1.933594-2.308593c2.910156-15.757813 19.34375-33.96875 20.496094-35.273438l.070312-.09375-.046875.09375c-6.140625 15.054688 2.257813 36.101562 9.597656 49.15625zm0 0" fill="#cc4b4c"/><path d="m86.722656 280.851562c-65.613281-18.871093-96.519531-90.691406-83.980468-145.792968 12.984374-56.875 85.753906-101.144532 155.546874-85.246094 10.226563 2.3125 20.125 5.910156 29.449219 10.703125l46.234375 58.011719zm0 0" fill="#802f34"/><path d="m31.667969 184.144531c-2.585938-.003906-4.910157-1.574219-5.871094-3.972656-7.945313-24.003906-2.792969-50.414063 13.597656-69.667969 2.183594-2.734375 6.171875-3.179687 8.902344-.992187 2.734375 2.183593 3.179687 6.167969.996094 8.902343-13.53125 15.703126-17.96875 37.289063-11.730469 57.050782.777344 1.953125.535156 4.164062-.644531 5.90625-1.183594 1.738281-3.148438 2.777344-5.25 2.773437zm0 0" fill="#cc4b4c"/><path d="m69.683594 95.476562c0 3.496094-2.835938 6.332032-6.332032 6.332032-3.496093 0-6.332031-2.835938-6.332031-6.332032 0-3.5 2.835938-6.335937 6.332031-6.335937 3.496094 0 6.332032 2.835937 6.332032 6.335937zm0 0" fill="#cc4b4c"/><path d="m169.6875 27.140625c15.960938 12.917969 19.632812 33.4375 19.128906 51.234375-.398437 10.792969-7.355468 20.238281-17.542968 23.816406-55.859376 20.328125-95.273438 69.917969-95.273438 127.804688 0 76.191406 68.101562 137.8125 152 137.8125s152-61.621094 152-137.8125c0-57.886719-39.390625-107.476563-95.25-127.804688-10.1875-3.578125-17.148438-13.027344-17.542969-23.816406-.507812-17.796875 3.164063-38.316406 19.125-51.234375l.128907-.0625-.128907.0625c-1.960937.695313-29.703125 10.257813-41.863281 25.078125-.773438 1.046875-2.082031 1.554688-3.359375 1.296875s-2.289063-1.234375-2.59375-2.5c-.980469-4.828125-2.625-9.496094-4.882813-13.871094-1.113281-2.074219-3.277343-3.367187-5.628906-3.367187-2.355468 0-4.519531 1.292968-5.632812 3.367187-2.257813 4.375-3.898438 9.042969-4.882813 13.871094-.304687 1.265625-1.316406 2.242187-2.589843 2.5-1.277344.257813-2.589844-.25-3.363282-1.296875-12.160156-14.820312-39.898437-24.382812-41.859375-25.078125l-.128906-.0625zm0 0" fill="#cc4b4c"/><path d="m228 355.144531c-76.832031 0-139.332031-56.140625-139.332031-125.148437 0-51.191406 34.117187-96.691406 86.917969-115.902344 15.113281-5.324219 25.394531-19.402344 25.871093-35.421875.230469-6.742187-.195312-13.492187-1.265625-20.152344.554688.578125 1.082032 1.160157 1.558594 1.734375 3.085938 3.773438 7.703125 5.964844 12.578125 5.96875 5.605469.046875 10.8125-2.894531 13.671875-7.714844 2.863281 4.820313 8.070312 7.757813 13.675781 7.714844 4.855469-.003906 9.457031-2.179687 12.546875-5.929687.488282-.59375 1.023438-1.191407 1.601563-1.78125-1.074219 6.683593-1.5 13.449219-1.269531 20.210937.492187 15.980469 10.75 30.019532 25.824218 35.347656 52.855469 19.242188 86.957032 64.730469 86.957032 115.925782-.003907 69.007812-62.488282 125.148437-139.335938 125.148437zm0 0" fill="#f5efca"/><path d="m243.578125 150.777344c.671875-7.945313 5.054687-15.113282 11.828125-19.324219 6.773438-4.214844 15.140625-4.980469 22.5625-2.070313 29.832031 11.832032 70.363281 38.984376 70.363281 99.09375 0 60.722657-41.398437 85.21875-71.28125 95-7.34375 2.402344-15.386719 1.3125-21.828125-2.953124-6.445312-4.269532-10.582031-11.246094-11.238281-18.949219-1.609375-19.082031-3.320313-46.71875-3.320313-79.429688.003907-29.863281 1.429688-54.09375 2.914063-71.367187zm0 0" fill="#802d40"/><g fill="#d75e72"><path d="m278.683594 152.484375c0 3.496094-2.832032 6.332031-6.332032 6.332031-3.496093 0-6.332031-2.835937-6.332031-6.332031 0-3.5 2.835938-6.335937 6.332031-6.335937 3.5 0 6.332032 2.835937 6.332032 6.335937zm0 0"/><path d="m297.683594 165.148438c0 3.496093-2.832032 6.332031-6.332032 6.332031-3.496093 0-6.332031-2.835938-6.332031-6.332031 0-3.496094 2.835938-6.332032 6.332031-6.332032 3.5 0 6.332032 2.835938 6.332032 6.332032zm0 0"/><path d="m272.351562 171.484375c0 3.496094-2.835937 6.332031-6.332031 6.332031-3.5 0-6.332031-2.835937-6.332031-6.332031 0-3.5 2.832031-6.335937 6.332031-6.335937 3.496094 0 6.332031 2.835937 6.332031 6.335937zm0 0"/><path d="m272.351562 196.816406c0 3.496094-2.835937 6.332032-6.332031 6.332032-3.5 0-6.332031-2.835938-6.332031-6.332032 0-3.5 2.832031-6.332031 6.332031-6.332031 3.496094 0 6.332031 2.832031 6.332031 6.332031zm0 0"/><path d="m291.351562 184.148438c0 3.496093-2.835937 6.332031-6.332031 6.332031-3.496093 0-6.332031-2.835938-6.332031-6.332031 0-3.496094 2.835938-6.332032 6.332031-6.332032 3.496094 0 6.332031 2.835938 6.332031 6.332032zm0 0"/><path d="m316.683594 184.148438c0 3.496093-2.832032 6.332031-6.332032 6.332031-3.496093 0-6.332031-2.835938-6.332031-6.332031 0-3.496094 2.835938-6.332032 6.332031-6.332032 3.5 0 6.332032 2.835938 6.332032 6.332032zm0 0"/><path d="m304.019531 203.148438c0 3.496093-2.835937 6.332031-6.332031 6.332031-3.5 0-6.335938-2.835938-6.335938-6.332031 0-3.496094 2.835938-6.332032 6.335938-6.332032 3.496094 0 6.332031 2.835938 6.332031 6.332032zm0 0"/><path d="m285.019531 215.816406c0 3.496094-2.835937 6.332032-6.332031 6.332032-3.5 0-6.335938-2.835938-6.335938-6.332032 0-3.5 2.835938-6.332031 6.335938-6.332031 3.496094 0 6.332031 2.832031 6.332031 6.332031zm0 0"/><path d="m272.351562 234.816406c0 3.496094-2.835937 6.332032-6.332031 6.332032-3.5 0-6.332031-2.835938-6.332031-6.332032 0-3.5 2.832031-6.332031 6.332031-6.332031 3.496094 0 6.332031 2.832031 6.332031 6.332031zm0 0"/><path d="m304.019531 228.484375c0 3.496094-2.835937 6.332031-6.332031 6.332031-3.5 0-6.335938-2.835937-6.335938-6.332031 0-3.5 2.835938-6.335937 6.335938-6.335937 3.496094 0 6.332031 2.835937 6.332031 6.335937zm0 0"/><path d="m329.351562 203.148438c0 3.496093-2.835937 6.332031-6.332031 6.332031-3.496093 0-6.332031-2.835938-6.332031-6.332031 0-3.496094 2.835938-6.332032 6.332031-6.332032 3.496094 0 6.332031 2.835938 6.332031 6.332032zm0 0"/><path d="m329.351562 222.148438c0 3.496093-2.835937 6.332031-6.332031 6.332031-3.496093 0-6.332031-2.835938-6.332031-6.332031 0-3.496094 2.835938-6.332032 6.332031-6.332032 3.496094 0 6.332031 2.835938 6.332031 6.332032zm0 0"/><path d="m323.019531 247.484375c0 3.496094-2.835937 6.332031-6.332031 6.332031-3.5 0-6.335938-2.835937-6.335938-6.332031 0-3.5 2.835938-6.335937 6.335938-6.335937 3.496094 0 6.332031 2.835937 6.332031 6.335937zm0 0"/><path d="m323.019531 266.484375c0 3.496094-2.835937 6.332031-6.332031 6.332031-3.5 0-6.335938-2.835937-6.335938-6.332031 0-3.5 2.835938-6.335937 6.335938-6.335937 3.496094 0 6.332031 2.835937 6.332031 6.335937zm0 0"/><path d="m291.351562 247.484375c0 3.496094-2.835937 6.332031-6.332031 6.332031-3.496093 0-6.332031-2.835937-6.332031-6.332031 0-3.5 2.835938-6.335937 6.332031-6.335937 3.496094 0 6.332031 2.835937 6.332031 6.335937zm0 0"/><path d="m272.351562 266.484375c0 3.496094-2.835937 6.332031-6.332031 6.332031-3.5 0-6.332031-2.835937-6.332031-6.332031 0-3.5 2.832031-6.335937 6.332031-6.335937 3.496094 0 6.332031 2.835937 6.332031 6.335937zm0 0"/><path d="m304.019531 266.484375c0 3.496094-2.835937 6.332031-6.332031 6.332031-3.5 0-6.335938-2.835937-6.335938-6.332031 0-3.5 2.835938-6.335937 6.335938-6.335937 3.496094 0 6.332031 2.835937 6.332031 6.335937zm0 0"/><path d="m310.351562 285.484375c0 3.496094-2.835937 6.332031-6.332031 6.332031-3.496093 0-6.332031-2.835937-6.332031-6.332031 0-3.5 2.835938-6.335937 6.332031-6.335937 3.496094 0 6.332031 2.835937 6.332031 6.335937zm0 0"/><path d="m285.019531 285.484375c0 3.496094-2.835937 6.332031-6.332031 6.332031-3.5 0-6.335938-2.835937-6.335938-6.332031 0-3.5 2.835938-6.335937 6.335938-6.335937 3.496094 0 6.332031 2.835937 6.332031 6.335937zm0 0"/><path d="m272.351562 304.484375c0 3.496094-2.835937 6.332031-6.332031 6.332031-3.5 0-6.332031-2.835937-6.332031-6.332031 0-3.5 2.832031-6.335937 6.332031-6.335937 3.496094 0 6.332031 2.835937 6.332031 6.335937zm0 0"/></g><path d="m212.453125 150.777344c-.671875-7.945313-5.054687-15.113282-11.828125-19.324219-6.773438-4.214844-15.136719-4.980469-22.5625-2.070313-29.796875 11.832032-70.394531 38.984376-70.394531 99.09375 0 60.722657 41.398437 85.21875 71.28125 95 7.34375 2.402344 15.386719 1.3125 21.828125-2.953124 6.445312-4.269532 10.582031-11.246094 11.238281-18.949219 1.648437-19.082031 3.320313-46.71875 3.320313-79.429688-.003907-29.863281-1.394532-54.09375-2.882813-71.367187zm0 0" fill="#802d40"/><path d="m190.019531 152.484375c0 3.496094-2.835937 6.332031-6.332031 6.332031-3.5 0-6.335938-2.835937-6.335938-6.332031 0-3.5 2.835938-6.335937 6.335938-6.335937 3.496094 0 6.332031 2.835937 6.332031 6.335937zm0 0" fill="#d75e72"/><path d="m171.019531 165.148438c0 3.496093-2.835937 6.332031-6.332031 6.332031-3.5 0-6.335938-2.835938-6.335938-6.332031 0-3.496094 2.835938-6.332032 6.335938-6.332032 3.496094 0 6.332031 2.835938 6.332031 6.332032zm0 0" fill="#d75e72"/><path d="m196.351562 171.484375c0 3.496094-2.835937 6.332031-6.332031 6.332031-3.5 0-6.332031-2.835937-6.332031-6.332031 0-3.5 2.832031-6.335937 6.332031-6.335937 3.496094 0 6.332031 2.835937 6.332031 6.335937zm0 0" fill="#d75e72"/><path d="m196.351562 196.816406c0 3.496094-2.835937 6.332032-6.332031 6.332032-3.5 0-6.332031-2.835938-6.332031-6.332032 0-3.5 2.832031-6.332031 6.332031-6.332031 3.496094 0 6.332031 2.832031 6.332031 6.332031zm0 0" fill="#d75e72"/><path d="m177.351562 184.148438c0 3.496093-2.835937 6.332031-6.332031 6.332031-3.5 0-6.332031-2.835938-6.332031-6.332031 0-3.496094 2.832031-6.332032 6.332031-6.332032 3.496094 0 6.332031 2.835938 6.332031 6.332032zm0 0" fill="#d75e72"/><path d="m152.019531 184.148438c0 3.496093-2.835937 6.332031-6.332031 6.332031-3.5 0-6.335938-2.835938-6.335938-6.332031 0-3.496094 2.835938-6.332032 6.335938-6.332032 3.496094 0 6.332031 2.835938 6.332031 6.332032zm0 0" fill="#d75e72"/><path d="m164.683594 203.148438c0 3.496093-2.835938 6.332031-6.332032 6.332031-3.496093 0-6.332031-2.835938-6.332031-6.332031 0-3.496094 2.835938-6.332032 6.332031-6.332032 3.496094 0 6.332032 2.835938 6.332032 6.332032zm0 0" fill="#d75e72"/><path d="m183.683594 215.816406c0 3.496094-2.835938 6.332032-6.332032 6.332032-3.496093 0-6.332031-2.835938-6.332031-6.332032 0-3.5 2.835938-6.332031 6.332031-6.332031 3.496094 0 6.332032 2.832031 6.332032 6.332031zm0 0" fill="#d75e72"/><path d="m196.351562 234.816406c0 3.496094-2.835937 6.332032-6.332031 6.332032-3.5 0-6.332031-2.835938-6.332031-6.332032 0-3.5 2.832031-6.332031 6.332031-6.332031 3.496094 0 6.332031 2.832031 6.332031 6.332031zm0 0" fill="#d75e72"/><path d="m164.683594 228.484375c0 3.496094-2.835938 6.332031-6.332032 6.332031-3.496093 0-6.332031-2.835937-6.332031-6.332031 0-3.5 2.835938-6.335937 6.332031-6.335937 3.496094 0 6.332032 2.835937 6.332032 6.335937zm0 0" fill="#d75e72"/><path d="m139.351562 203.148438c0 3.496093-2.835937 6.332031-6.332031 6.332031-3.5 0-6.332031-2.835938-6.332031-6.332031 0-3.496094 2.832031-6.332032 6.332031-6.332032 3.496094 0 6.332031 2.835938 6.332031 6.332032zm0 0" fill="#d75e72"/><path d="m139.351562 222.148438c0 3.496093-2.835937 6.332031-6.332031 6.332031-3.5 0-6.332031-2.835938-6.332031-6.332031 0-3.496094 2.832031-6.332032 6.332031-6.332032 3.496094 0 6.332031 2.835938 6.332031 6.332032zm0 0" fill="#d75e72"/><path d="m145.683594 247.484375c0 3.496094-2.835938 6.332031-6.332032 6.332031-3.496093 0-6.332031-2.835937-6.332031-6.332031 0-3.5 2.835938-6.335937 6.332031-6.335937 3.496094 0 6.332032 2.835937 6.332032 6.335937zm0 0" fill="#d75e72"/><path d="m145.683594 266.484375c0 3.496094-2.835938 6.332031-6.332032 6.332031-3.496093 0-6.332031-2.835937-6.332031-6.332031 0-3.5 2.835938-6.335937 6.332031-6.335937 3.496094 0 6.332032 2.835937 6.332032 6.335937zm0 0" fill="#d75e72"/><path d="m177.351562 247.484375c0 3.496094-2.835937 6.332031-6.332031 6.332031-3.5 0-6.332031-2.835937-6.332031-6.332031 0-3.5 2.832031-6.335937 6.332031-6.335937 3.496094 0 6.332031 2.835937 6.332031 6.335937zm0 0" fill="#d75e72"/><path d="m196.351562 266.484375c0 3.496094-2.835937 6.332031-6.332031 6.332031-3.5 0-6.332031-2.835937-6.332031-6.332031 0-3.5 2.832031-6.335937 6.332031-6.335937 3.496094 0 6.332031 2.835937 6.332031 6.335937zm0 0" fill="#d75e72"/><path d="m164.683594 266.484375c0 3.496094-2.835938 6.332031-6.332032 6.332031-3.496093 0-6.332031-2.835937-6.332031-6.332031 0-3.5 2.835938-6.335937 6.332031-6.335937 3.496094 0 6.332032 2.835937 6.332032 6.335937zm0 0" fill="#d75e72"/><path d="m158.351562 285.484375c0 3.496094-2.835937 6.332031-6.332031 6.332031-3.5 0-6.332031-2.835937-6.332031-6.332031 0-3.5 2.832031-6.335937 6.332031-6.335937 3.496094 0 6.332031 2.835937 6.332031 6.335937zm0 0" fill="#d75e72"/><path d="m183.683594 285.484375c0 3.496094-2.835938 6.332031-6.332032 6.332031-3.496093 0-6.332031-2.835937-6.332031-6.332031 0-3.5 2.835938-6.335937 6.332031-6.335937 3.496094 0 6.332032 2.835937 6.332032 6.335937zm0 0" fill="#d75e72"/><path d="m196.351562 304.484375c0 3.496094-2.835937 6.332031-6.332031 6.332031-3.5 0-6.332031-2.835937-6.332031-6.332031 0-3.5 2.832031-6.335937 6.332031-6.335937 3.496094 0 6.332031 2.835937 6.332031 6.335937zm0 0" fill="#d75e72"/></svg>