<?xml version="1.0" encoding="iso-8859-1"?>
<!-- Generator: Adobe Illustrator 19.0.0, SVG Export Plug-In . SVG Version: 6.00 Build 0)  -->
<svg version="1.1" id="Capa_1" xmlns="http://www.w3.org/2000/svg" xmlns:xlink="http://www.w3.org/1999/xlink" x="0px" y="0px"
	 viewBox="0 0 512 512" style="enable-background:new 0 0 512 512;" xml:space="preserve">
<g transform="matrix(1.25 0 0 -1.25 0 45)">
	<path style="fill:#77B255;" d="M273.155-169.237c-21.032,16.222-65.03,58.546-100.657,106.048S112.064,16.709,77.494,8.064
		c-6.782-1.696-13.079-4.121-18.859-7.131c-4.498,12.267-10.629,24.745-16.766,30.882C29.993,43.69-2.391,28.572,18.118,8.064
		C26.117,0.064,28.731-7.941,33.213-19.57C16.828-39.322,10.909-65.317,18.118-86.94c15.022-45.067,47.502-95.004,106.879-166.256
		c53.76-64.52,120.88-115.536,180.104-119.74c62.026-4.406,93.032,12.861,93.032,60.363
		C398.132-256.165,324.314-208.712,273.155-169.237z"/>
	<g>
		<path style="fill:#5C913B;" d="M277.962-322.68C160.331-249.18,83.964-128.469,58.869-88.802
			c-2.321,3.668-4.326,6.836-5.934,9.301c-2.742,4.2-8.369,5.382-12.568,2.641c-4.2-2.741-5.382-8.369-2.641-12.568
			c1.539-2.357,3.51-5.474,5.795-9.085c13.728-21.701,39.283-62.094,76.902-107.146c46.343-55.499,96.109-100.054,147.915-132.424
			c1.497-0.935,3.16-1.381,4.803-1.381c3.027,0,5.987,1.514,7.71,4.271C283.508-330.94,282.215-325.337,277.962-322.68z"/>
		<path style="fill:#5C913B;" d="M322.528-300.095C174.402-200.876,97.532-81.048,72.272-41.672
			c-1.533,2.39-2.866,4.466-4.001,6.206c-2.742,4.201-8.369,5.382-12.568,2.641c-4.2-2.741-5.382-8.369-2.641-12.568
			c1.113-1.705,2.419-3.741,3.922-6.084C82.75-91.641,161.156-213.863,312.42-315.185c1.552-1.04,3.308-1.537,5.045-1.537
			c2.927,0,5.802,1.413,7.553,4.028C327.811-308.527,326.695-302.886,322.528-300.095z"/>
		<path style="fill:#5C913B;" d="M102.867-49.222c22.648-32.773,75.686-109.522,162.648-174.632
			c1.633-1.222,3.542-1.813,5.436-1.813c2.764,0,5.492,1.257,7.276,3.639c3.006,4.015,2.188,9.706-1.827,12.713
			C191.81-145.98,139.953-70.94,117.809-38.896l-2.173,3.144c-2.854,4.122-8.511,5.152-12.636,2.296
			c-4.123-2.855-5.151-8.513-2.296-12.636L102.867-49.222z"/>
	</g>
</g>
<g>
</g>
<g>
</g>
<g>
</g>
<g>
</g>
<g>
</g>
<g>
</g>
<g>
</g>
<g>
</g>
<g>
</g>
<g>
</g>
<g>
</g>
<g>
</g>
<g>
</g>
<g>
</g>
<g>
</g>
</svg>
